{"title":"Life.of.Riley.[Aimer.Boire.et.Chanter].2014.BRRip.x264.HORiZON-A","uid":10691346,"size":2147200598,"categoryP":"video","categoryS":"movies","magnet":"?xt=urn:btih:eb4d57aa1841cd086e385de0d6fc8562e819fd15&amp;dn=Life.of.Riley.%5BAimer.Boire.et.Chanter%5D.2014.BRRip.x264.HORiZON-A&amp;tr=udp%3A%2F%2Ftracker.openbittorrent.com%3A80&amp;tr=udp%3A%2F%2Fopen.demonii.com%3A1337&amp;tr=udp%3A%2F%2Ftracker.coppersurfer.tk%3A6969&amp;tr=udp%3A%2F%2Fexodus.desync.com%3A6969","seeders":12,"leechers":1,"uploader":"lletaif","files":1,"time":1407125957,"description":"Title:\nLife of Riley Aka Aimer, Boire et Chanter\n\n\nCountry:\nFrench, 2014\n\n\nLanguage:\nFrench\n\n\nNo Subtitle\n\n\nIMDB: &lt;a href=&quot;\nhttp://www.imdb.com/title/tt2751390/?ref_=fn_al_tt_1&quot; rel=&quot;nofollow&quot; target=&quot;_NEW&quot;&gt;\nhttp://www.imdb.com/title/tt2751390/?ref_=fn_al_tt_1&lt;/a&gt;\n\n\nSynopsis:\nIn the midst of rehearsals for a new play, amateur dramatics proponents Colin and Kathryn receive the shattering news that their friend George is fatally ill and only has a few months to live. The last movie from french master director Alain Resnais.\n\n\nTrivia:\nWon Silver Bear in Berlin International Film Festival 2014.\n\n\n\nMedia Info:\n\nGeneral\nUnique ID                                : 240234768290622071032385538588615464039 (0xB4BB888C78036F149D7300E366815467)\nComplete name                            : Life.of.Riley.[Aimer.Boire.et.Chanter].2014.BRRip.x264.HORiZON-ArtSubs.mkv\nFormat                                   : Matroska\nFormat version                           : Version 2\nFile size                                : 2.00 GiB\nDuration                                 : 1h 48mn\nOverall bit rate                         : 2 648 Kbps\nEncoded date                             : UTC 2014-08-03 23:20:23\nWriting application                      : DVDFab 9.1.4.0\nWriting library                          : libebml v0.7.8 + libmatroska v0.8.1\n\nVideo\nID                                       : 1\nFormat                                   : AVC\nFormat/Info                              : Advanced Video Codec\nFormat profile                           : &lt;a class=&quot;__cf_email__&quot; href=&quot;/cdn-cgi/l/email-protection&quot; data-cfemail=&quot;efa7868887afa3dbc1de&quot;&gt;[email&amp;#160;protected]&lt;/a&gt;&lt;script cf-hash='f9e31' type=&quot;text/javascript&quot;&gt;\n/* &lt;![CDATA[ */!function(){try{var t=&quot;currentScript&quot;in document?document.currentScript:function(){for(var t=document.getElementsByTagName(&quot;script&quot;),e=t.length;e--;)if(t[e].getAttribute(&quot;cf-hash&quot;))return t[e]}();if(t&amp;&amp;t.previousSibling){var e,r,n,i,c=t.previousSibling,a=c.getAttribute(&quot;data-cfemail&quot;);if(a){for(e=&quot;&quot;,r=parseInt(a.substr(0,2),16),n=2;a.length-n;n+=2)i=parseInt(a.substr(n,2),16)^r,e+=String.fromCharCode(i);e=document.createTextNode(e),c.parentNode.replaceChild(e,c)}}}catch(u){}}();/* ]]&gt; */&lt;/script&gt;\nFormat settings, CABAC                   : Yes\nFormat settings, ReFrames                : 2 frames\nCodec ID                                 : V_MPEG4/ISO/AVC\nDuration                                 : 1h 48mn\nBit rate                                 : 2 148 Kbps\nWidth                                    : 1 280 pixels\nHeight                                   : 532 pixels\nDisplay aspect ratio                     : 2.40:1\nFrame rate mode                          : Constant\nFrame rate                               : 23.976 fps\nColor space                              : YUV\nChroma subsampling                       : 4:2:0\nBit depth                                : 8 bits\nScan type                                : Progressive\nBits/(Pixel*Frame)                       : 0.132\nStream size                              : 1.62 GiB (81%)\nWriting library                          : x264 core\nDefault                                  : Yes\nForced                                   : No\nColor primaries                          : BT.709\nTransfer characteristics                 : BT.709\nMatrix coefficients                      : BT.709\n\nAudio\nID                                       : 2\nFormat                                   : AC-3\nFormat/Info                              : Audio Coding 3\nMode extension                           : CM (complete main)\nFormat settings, Endianness              : Big\nCodec ID                                 : A_AC3\nDuration                                 : 1h 48mn\nBit rate mode                            : Constant\nBit rate                                 : 448 Kbps\nChannel(s)                               : 6 channels\nChannel positions                        : Front: L C R, Side: L R, LFE\nSampling rate                            : 48.0 KHz\nBit depth                                : 16 bits\nCompression mode                         : Lossy\nStream size                              : 346 MiB (17%)\nLanguage                                 : French\nDefault                                  : Yes\nForced                                   : No\n\n","torrent":{"xt":"urn:btih:eb4d57aa1841cd086e385de0d6fc8562e819fd15","amp;dn":"Life.of.Riley.%5BAimer.Boire.et.Chanter%5D.2014.BRRip.x264.HORiZON-A","amp;tr":["udp%3A%2F%2Ftracker.openbittorrent.com%3A80","udp%3A%2F%2Fopen.demonii.com%3A1337","udp%3A%2F%2Ftracker.coppersurfer.tk%3A6969","udp%3A%2F%2Fexodus.desync.com%3A6969"],"infoHash":"eb4d57aa1841cd086e385de0d6fc8562e819fd15","infoHashBuffer":{"type":"Buffer","data":[235,77,87,170,24,65,205,8,110,56,93,224,214,252,133,98,232,25,253,21]},"announce":[],"urlList":[]}}